<svg width="36" height="32" viewBox="0 0 36 32" fill="none" xmlns="http://www.w3.org/2000/svg">
<path d="M17.25 25.375L17.5625 25.25C21 24.375 24.9375 23.375 29 23.5C29.25 21.5625 30.9375 20 33 20V9C30.75 9 29 7.25 29 5.0625C25.875 4.9375 22.5 5.75 18.6875 6.6875L18.375 6.8125C14.9375 7.6875 11 8.6875 6.9375 8.5625C6.6875 10.5 5 12 3 12V23C5.1875 23 6.9375 24.8125 7 27C10.0625 27.125 13.4375 26.3125 17.25 25.375ZM0 3.8125C1 4.3125 2 4.6875 3 4.9375C8 6.375 13 5.0625 18 3.8125C24 2.25 30 0.75 36 3.8125V24.9375V28.25C35 27.75 34 27.375 33 27.0625C28 25.6875 23 27 18 28.25C12 29.8125 6 31.3125 0 28.25V7.125V3.8125ZM18 22C15.1875 22 13 19.3125 13 16C13 12.6875 15.1875 10 18 10C20.75 10 23 12.6875 23 16C23 19.3125 20.75 22 18 22Z" fill="#091735"/>
</svg>
