<svg width="20" height="33" viewBox="0 0 20 33" fill="none" xmlns="http://www.w3.org/2000/svg">
<path d="M6.9375 4C6.9375 2.9375 7.5 2 8.4375 1.4375C9.3125 0.875 10.5 0.875 11.4375 1.4375C12.3125 2 12.9375 2.9375 12.9375 4C12.9375 5.125 12.3125 6.0625 11.4375 6.625C10.5 7.1875 9.3125 7.1875 8.4375 6.625C7.5 6.0625 6.9375 5.125 6.9375 4ZM5.8125 9H6.6875H13.125H14L14.4375 9.8125L19.125 18.3125L19.875 19.625L17.25 21.0625L16.5 19.75L13.9375 15.0625V31.5V33H10.9375V31.5V23H8.9375V31.5V33H5.9375V31.5V15.0625L3.3125 19.75L2.625 21.0625L0 19.625L0.6875 18.3125L5.375 9.8125L5.8125 9ZM8.9375 20H10.9375V12H8.9375V20Z" fill="#1F1F1F"/>
</svg>
