<svg width="25" height="24" viewBox="0 0 25 24" fill="none" xmlns="http://www.w3.org/2000/svg">
<path opacity="0.4" d="M13.645 2.59375V21.1562H11.9575V2.59375H13.645ZM11.9575 0.0625H9.42627V2.59375V21.1562V23.6875H11.9575H13.645H16.1763V21.1562V2.59375V0.0625H13.645H11.9575ZM5.20752 12.7188V21.1562H3.52002V12.7188H5.20752ZM3.52002 10.1875H0.98877V12.7188V21.1562V23.6875H3.52002H5.20752H7.73877V21.1562V12.7188V10.1875H5.20752H3.52002ZM20.395 5.96875H22.0825V21.1562H20.395V5.96875ZM17.8638 3.4375V5.96875V21.1562V23.6875H20.395H22.0825H24.6138V21.1562V5.96875V3.4375H22.0825H20.395H17.8638Z" fill="white"/>
</svg>
