<svg width="28" height="28" viewBox="0 0 28 28" fill="none" xmlns="http://www.w3.org/2000/svg">
<path d="M11.8652 2.90625C14.8711 2.90625 17.6133 4.54102 19.1426 7.125C20.6719 9.76172 20.6719 12.9785 19.1426 15.5625C17.6133 18.1992 14.8711 19.7812 11.8652 19.7812C8.80664 19.7812 6.06445 18.1992 4.53516 15.5625C3.00586 12.9785 3.00586 9.76172 4.53516 7.125C6.06445 4.54102 8.80664 2.90625 11.8652 2.90625ZM11.8652 22.3125C14.3965 22.3125 16.7695 21.4688 18.668 19.9922L25.207 26.5312L26.1035 27.4277L27.8965 25.6348L27 24.7383L20.4609 18.1992C21.9375 16.3008 22.834 13.9277 22.834 11.3438C22.834 5.33203 17.877 0.375 11.8652 0.375C5.80078 0.375 0.896484 5.33203 0.896484 11.3438C0.896484 17.4082 5.80078 22.3125 11.8652 22.3125ZM6.38086 11.7656V14.2969V15.5625H8.91211V14.2969V11.7656V10.5H6.38086V11.7656ZM10.5996 6.70312V14.2969V15.5625H13.1309V14.2969V6.70312V5.4375H10.5996V6.70312ZM14.8184 10.0781V14.2969V15.5625H17.3496V14.2969V10.0781V8.8125H14.8184V10.0781Z" fill="white"/>
</svg>
