<svg width="28" height="24" viewBox="0 0 28 24" fill="none" xmlns="http://www.w3.org/2000/svg">
<path d="M22.8452 0.853516L25.8511 3.85938H25.9565V3.96484L26.2202 4.28125L27.1167 5.17773L26.2202 6.07422L25.9565 6.33789V6.39062H25.8511L22.8452 9.39648L21.9487 10.293L20.1558 8.5L21.0522 7.60352L22.2651 6.39062H17.73L14.6714 10.5039L13.0894 8.39453L16.0425 4.38672L16.4644 3.85938H17.0972H22.2651L21.0522 2.64648L20.1558 1.75L21.9487 0.00976562L22.8452 0.90625V0.853516ZM10.98 15.4082L7.97412 19.416L7.60498 19.8906H6.97217H1.48779H0.222168V17.3594H1.48779H6.33936L9.39795 13.2988L10.98 15.4082ZM21.9487 13.5098L22.8452 14.4062L25.8511 17.4121H25.9565V17.4648L26.2202 17.7812L27.1167 18.6777L26.2202 19.5742L25.9565 19.8379V19.8906H25.8511L22.8452 22.8965L21.9487 23.793L20.1558 22L21.0522 21.1035L22.2651 19.8906H17.0972H16.4644L16.0425 19.416L6.33936 6.39062H1.48779H0.222168V3.85938H1.48779H6.97217H7.60498L7.97412 4.38672L17.73 17.3594H22.2651L21.0522 16.1465L20.1558 15.25L21.9487 13.5098Z" fill="white"/>
</svg>
