<svg width="16" height="16" viewBox="0 0 16 16" fill="none" xmlns="http://www.w3.org/2000/svg">
<path opacity="0.9" d="M11 13.5H12C12.25 13.5 12.5 13.2812 12.5 13V12C12.5 11.75 12.25 11.5 12 11.5H11C10.7188 11.5 10.5 11.75 10.5 12V13C10.5 13.2812 10.7188 13.5 11 13.5ZM11 10.5H12C12.25 10.5 12.5 10.2812 12.5 10V9C12.5 8.75 12.25 8.5 12 8.5H11C10.7188 8.5 10.5 8.75 10.5 9V10C10.5 10.2812 10.7188 10.5 11 10.5ZM8 10.5H9C9.25 10.5 9.5 10.2812 9.5 10V9C9.5 8.75 9.25 8.5 9 8.5H8C7.71875 8.5 7.5 8.75 7.5 9V10C7.5 10.2812 7.71875 10.5 8 10.5ZM14.5 6H5.5L5.46875 1.5H12.4062L13.5 2.5625V5H15V2.5625C15 2.1875 14.8125 1.78125 14.5312 1.5L13.5 0.46875C13.2188 0.1875 12.8125 0 12.4375 0H5.46875C4.625 0 3.96875 0.6875 3.96875 1.5V4.09375C3.8125 4.03125 3.65625 4 3.5 4H2C0.875 4 0 4.90625 0 6V14C0 15.125 0.875 16 2 16H14.5C15.3125 16 16 15.3438 16 14.5V7.5C16 6.6875 15.3125 6 14.5 6ZM4 14C4 14.2812 3.75 14.5 3.5 14.5H2C1.71875 14.5 1.5 14.2812 1.5 14V6C1.5 5.75 1.71875 5.5 2 5.5H3.5C3.75 5.5 4 5.75 4 6V14ZM14.5 14.5H5.40625C5.46875 14.3438 5.5 14.1875 5.5 14V7.5H14.5V14.5ZM8 13.5H9C9.25 13.5 9.5 13.2812 9.5 13V12C9.5 11.75 9.25 11.5 9 11.5H8C7.71875 11.5 7.5 11.75 7.5 12V13C7.5 13.2812 7.71875 13.5 8 13.5Z" fill="#00ADD8"/>
</svg>
