<svg width="66" height="69" viewBox="0 0 66 69" fill="none" xmlns="http://www.w3.org/2000/svg">
<path d="M59.7715 34.625C59.7715 25.2305 54.6934 16.5977 46.5684 11.7734C38.3164 7.07617 28.2871 7.07617 20.1621 11.7734C11.9102 16.5977 6.95898 25.2305 6.95898 34.625C6.95898 44.1465 11.9102 52.7793 20.1621 57.6035C28.2871 62.3008 38.3164 62.3008 46.5684 57.6035C54.6934 52.7793 59.7715 44.1465 59.7715 34.625ZM0.865234 34.625C0.865234 23.0723 6.95898 12.4082 17.1152 6.56836C27.1445 0.728516 39.459 0.728516 49.6152 6.56836C59.6445 12.4082 65.8652 23.0723 65.8652 34.625C65.8652 46.3047 59.6445 56.9688 49.6152 62.8086C39.459 68.6484 27.1445 68.6484 17.1152 62.8086C6.95898 56.9688 0.865234 46.3047 0.865234 34.625ZM49.6152 34.625L23.209 50.875V18.375L49.6152 34.625Z" fill="white"/>
</svg>
