<svg width="51" height="51" viewBox="0 0 51 51" fill="none" xmlns="http://www.w3.org/2000/svg">
<path d="M31.4324 2.69141C29.3816 2.10547 27.3309 1.8125 25.2801 1.8125C12.2918 1.8125 1.84258 12.3594 1.84258 25.25C1.84258 38.2383 12.2918 48.6875 25.2801 48.6875C38.1707 48.6875 48.7176 38.2383 48.7176 25.25C48.7176 23.1992 48.4246 21.0508 47.8387 19.0977L49.1082 17.8281C49.7918 20.1719 50.2801 22.7109 50.2801 25.25C50.2801 39.1172 39.0496 50.25 25.2801 50.25C11.4129 50.25 0.280085 39.1172 0.280085 25.25C0.280085 11.4805 11.4129 0.25 25.2801 0.25C27.8191 0.25 30.2606 0.738281 32.6043 1.42188L31.4324 2.69141ZM41.3934 22.7109C41.5887 23.5898 41.6863 24.4688 41.6863 25.25C41.6863 34.332 34.2645 41.6562 25.2801 41.6562C16.1981 41.6562 8.87383 34.332 8.87383 25.25C8.87383 16.2656 16.1981 8.84375 25.2801 8.84375C26.0613 8.84375 26.9402 8.94141 27.8191 9.13672C27.8191 9.52734 27.8191 9.91797 27.9168 10.3086V10.6992C27.0379 10.5039 26.159 10.4062 25.2801 10.4062C17.077 10.4062 10.4363 17.1445 10.4363 25.25C10.4363 33.4531 17.077 40.0938 25.2801 40.0938C33.3856 40.0938 40.1238 33.4531 40.1238 25.25C40.1238 24.3711 40.0262 23.4922 39.8309 22.6133H40.2215C40.6121 22.7109 41.0027 22.7109 41.3934 22.7109ZM25.2801 18.2188C25.6707 18.2188 26.159 18.3164 26.6473 18.4141L25.1824 19.7812C22.1551 19.8789 19.8113 22.3203 19.8113 25.25C19.8113 28.2773 22.2527 30.7188 25.2801 30.7188C28.2098 30.7188 30.6512 28.375 30.6512 25.3477L32.116 23.8828C32.2137 24.3711 32.3113 24.8594 32.3113 25.25C32.3113 29.1562 29.0887 32.2812 25.2801 32.2812C21.3738 32.2812 18.2488 29.1562 18.2488 25.25C18.2488 21.4414 21.3738 18.2188 25.2801 18.2188ZM25.7684 25.8359C25.4754 26.1289 24.9871 26.1289 24.6941 25.8359C24.4012 25.543 24.4012 25.0547 24.6941 24.7617L32.2137 17.2422L30.9441 9.82031C30.7488 8.55078 31.1395 7.28125 32.0184 6.40234L36.9988 1.51953C37.8777 0.640625 39.3426 1.03125 39.6356 2.20312L41.491 9.03906L48.327 10.8945C49.4988 11.1875 49.8895 12.6523 49.0106 13.5312L44.1277 18.4141C43.2488 19.3906 41.9793 19.7812 40.7098 19.5859L33.2879 18.3164L25.7684 25.8359ZM38.0731 2.59375L33.1902 7.57422C32.6043 8.0625 32.409 8.84375 32.5066 9.52734L33.5809 15.875L40.0262 9.42969L38.0731 2.59375ZM41.0027 18.0234C41.6863 18.1211 42.4676 17.9258 42.9559 17.3398L47.9363 12.457L41.1004 10.5039L34.6551 16.9492L41.0027 18.0234Z" fill="white"/>
</svg>
