<svg width="37" height="32" viewBox="0 0 37 32" fill="none" xmlns="http://www.w3.org/2000/svg">
<path d="M35.25 13.75C35.6875 14.3125 36.125 15.125 36.125 16C36.125 17.875 34.6875 19.125 33.5 19.8125C32.25 20.5625 30.75 21 29.5 21H23.25L17.375 31.25L16.9375 32H16.125H11.125H9.125L9.625 30.125L12.25 21H10.375L7.8125 24.4375L7.375 25H6.625H2.125H0L0.6875 23.0625L3 16L0.6875 9L0 7H2.125H6.625H7.375L7.8125 7.625L10.375 11H12.25L9.625 1.9375L9.125 0H11.125H16.125H16.9375L17.375 0.8125L23.25 11H29.5C30.75 11 32.3125 11.5625 33.5 12.25C34.125 12.6875 34.75 13.125 35.25 13.75ZM31.9375 14.8125C31.0625 14.3125 30.0625 14 29.5 14H22.375H21.5L21.0625 13.25L15.25 3H13.0625L15.6875 12.125L16.25 14H14.25H9.625H8.875L8.375 13.4375L5.875 10H4.1875L6 15.5625L6.1875 16L6 16.5L4.1875 22H5.875L8.375 18.625L8.875 18H9.625H14.25H16.25L15.6875 19.9375L13.0625 29H15.25L21.0625 18.8125L21.5 18H22.375H29.5C30.0625 18 31.125 17.75 31.9375 17.25C32.9375 16.6875 33.125 16.1875 33.125 16C33.125 16 33.0625 15.875 32.875 15.625C32.6875 15.375 32.375 15.125 31.9375 14.8125Z" fill="#091735"/>
</svg>
