<svg width="24" height="17" viewBox="0 0 24 17" fill="none" xmlns="http://www.w3.org/2000/svg">
<path d="M5.47344 16.9C3.7401 16.9 2.40677 16.3 1.47344 15.1C0.540104 13.9 0.0734376 12.3667 0.0734376 10.5C0.0734376 8.3 0.656771 6.31666 1.82344 4.55C3.02344 2.75 4.75677 1.36666 7.02344 0.399998L10.7734 3.05C7.4401 4.35 5.37344 6.13333 4.57344 8.4L4.77344 8.55C5.20677 8.18333 5.72344 8 6.32344 8C7.42344 8 8.3901 8.36667 9.22344 9.1C10.0568 9.83333 10.4734 10.8833 10.4734 12.25C10.4734 13.7167 10.0068 14.8667 9.07344 15.7C8.17344 16.5 6.97344 16.9 5.47344 16.9ZM17.7234 16.9C15.9901 16.9 14.6568 16.3 13.7234 15.1C12.7901 13.9 12.3234 12.3667 12.3234 10.5C12.3234 8.3 12.9068 6.31666 14.0734 4.55C15.2734 2.75 17.0068 1.36666 19.2734 0.399998L23.0234 3.05C19.6901 4.35 17.6234 6.13333 16.8234 8.4L17.0234 8.55C17.4568 8.18333 17.9734 8 18.5734 8C19.6734 8 20.6401 8.36667 21.4734 9.1C22.3068 9.83333 22.7234 10.8833 22.7234 12.25C22.7234 13.7167 22.2568 14.8667 21.3234 15.7C20.4234 16.5 19.2234 16.9 17.7234 16.9Z" fill="#00ADD8"/>
</svg>
