<svg width="23" height="17" viewBox="0 0 23 17" fill="none" xmlns="http://www.w3.org/2000/svg">
<path d="M5.47344 16.9C4.27344 16.9 3.25677 16.6167 2.42344 16.05C1.62344 15.4833 1.02344 14.7333 0.623438 13.8C0.256771 12.8667 0.0734376 11.8667 0.0734376 10.8C0.0734376 9.26667 0.390104 7.81666 1.02344 6.45C1.6901 5.08333 2.5401 3.88333 3.57344 2.85C4.6401 1.78333 5.7901 0.966666 7.02344 0.399998L10.4734 2.95C9.57344 3.35 8.72344 3.83333 7.92344 4.4C7.12344 4.93333 6.42344 5.53333 5.82344 6.2C5.25677 6.86666 4.82344 7.55 4.52344 8.25L4.77344 8.4C4.97344 8.26667 5.1901 8.16667 5.42344 8.1C5.6901 8.03333 6.0401 8 6.47344 8C7.07344 8 7.67344 8.15 8.27344 8.45C8.90677 8.75 9.42344 9.2 9.82344 9.8C10.2568 10.4 10.4734 11.1667 10.4734 12.1C10.4734 13.1333 10.2401 14.0167 9.77344 14.75C9.30677 15.45 8.6901 15.9833 7.92344 16.35C7.15677 16.7167 6.3401 16.9 5.47344 16.9ZM17.7234 16.9C16.5234 16.9 15.5068 16.6167 14.6734 16.05C13.8734 15.4833 13.2734 14.7333 12.8734 13.8C12.5068 12.8667 12.3234 11.8667 12.3234 10.8C12.3234 9.26667 12.6401 7.81666 13.2734 6.45C13.9401 5.08333 14.7901 3.88333 15.8234 2.85C16.8901 1.78333 18.0401 0.966666 19.2734 0.399998L22.7234 2.95C21.8234 3.35 20.9734 3.83333 20.1734 4.4C19.3734 4.93333 18.6734 5.53333 18.0734 6.2C17.5068 6.86666 17.0734 7.55 16.7734 8.25L17.0234 8.4C17.2234 8.26667 17.4401 8.16667 17.6734 8.1C17.9401 8.03333 18.2901 8 18.7234 8C19.3234 8 19.9234 8.15 20.5234 8.45C21.1568 8.75 21.6734 9.2 22.0734 9.8C22.5068 10.4 22.7234 11.1667 22.7234 12.1C22.7234 13.1333 22.4901 14.0167 22.0234 14.75C21.5568 15.45 20.9401 15.9833 20.1734 16.35C19.4068 16.7167 18.5901 16.9 17.7234 16.9Z" fill="#00ADD8"/>
</svg>
