<svg width="39" height="51" viewBox="0 0 39 51" fill="none" xmlns="http://www.w3.org/2000/svg">
<path d="M13.0301 33.8438C12.6395 33.8438 12.3465 33.6484 12.2488 33.4531C12.1512 33.1602 12.2488 32.7695 12.4441 32.5742L21.8191 23.1992C22.1121 22.9062 22.6004 22.9062 22.8934 23.1992C23.1863 23.4922 23.1863 23.9805 22.8934 24.2734L14.8856 32.2812H25.5301C25.8231 32.2812 26.116 32.4766 26.2137 32.7695C26.3113 33.0625 26.2137 33.4531 26.0184 33.6484L16.6434 43.0234C16.5457 43.2188 16.3504 43.2188 16.1551 43.2188C15.8621 43.2188 15.6668 43.2188 15.5691 43.0234C15.2762 42.7305 15.2762 42.2422 15.5691 41.9492L23.577 33.8438H13.0301ZM37.2488 48.6875C37.6395 48.6875 38.0301 49.0781 38.0301 49.4688C38.0301 49.957 37.6395 50.25 37.2488 50.25H1.31133C0.823053 50.25 0.530085 49.957 0.530085 49.4688C0.530085 49.0781 0.823053 48.6875 1.31133 48.6875H3.65508V17.4375H1.31133C0.823053 17.4375 0.530085 17.1445 0.530085 16.6562C0.530085 16.2656 0.823053 15.875 1.31133 15.875H9.90508V11.1875H5.21758C4.7293 11.1875 4.43633 10.8945 4.43633 10.4062C4.43633 10.0156 4.7293 9.625 5.21758 9.625H9.90508V6.5H5.21758C4.7293 6.5 4.43633 6.20703 4.43633 5.71875C4.43633 5.32812 4.7293 4.9375 5.21758 4.9375H9.90508V1.03125C9.90508 0.640625 10.1981 0.25 10.6863 0.25C11.077 0.25 11.4676 0.640625 11.4676 1.03125V4.9375H16.1551C16.5457 4.9375 16.9363 5.32812 16.9363 5.71875C16.9363 6.20703 16.5457 6.5 16.1551 6.5H11.4676V9.625H16.1551C16.5457 9.625 16.9363 10.0156 16.9363 10.4062C16.9363 10.8945 16.5457 11.1875 16.1551 11.1875H11.4676V15.875H27.0926V11.1875H22.4051C21.9168 11.1875 21.6238 10.8945 21.6238 10.4062C21.6238 10.0156 21.9168 9.625 22.4051 9.625H27.0926V6.5H22.4051C21.9168 6.5 21.6238 6.20703 21.6238 5.71875C21.6238 5.32812 21.9168 4.9375 22.4051 4.9375H27.0926V1.03125C27.0926 0.640625 27.3856 0.25 27.8738 0.25C28.2645 0.25 28.6551 0.640625 28.6551 1.03125V4.9375H33.3426C33.7332 4.9375 34.1238 5.32812 34.1238 5.71875C34.1238 6.20703 33.7332 6.5 33.3426 6.5H28.6551V9.625H33.3426C33.7332 9.625 34.1238 10.0156 34.1238 10.4062C34.1238 10.8945 33.7332 11.1875 33.3426 11.1875H28.6551V15.875H37.2488C37.6395 15.875 38.0301 16.2656 38.0301 16.6562C38.0301 17.1445 37.6395 17.4375 37.2488 17.4375H34.9051V48.6875H37.2488ZM33.3426 48.6875V17.4375H5.21758V48.6875H33.3426Z" fill="white"/>
</svg>
