<svg width="28" height="28" viewBox="0 0 28 28" fill="none" xmlns="http://www.w3.org/2000/svg">
<path d="M20.4722 3.75L17.0972 5.4375L20.4722 7.125L22.1597 10.5L23.8472 7.125L27.2222 5.4375L23.8472 3.75L22.1597 0.375L20.4722 3.75ZM13.7222 17.25L17.6245 15.2988L20.4722 13.875L17.6245 12.5039L13.7222 10.5L11.7183 6.59766L10.3472 3.75L8.92334 6.59766L6.97217 10.5L3.01709 12.5039L0.222168 13.875L3.01709 15.2988L6.97217 17.25L8.92334 21.2051L10.3472 24L11.7183 21.2051L13.7222 17.25ZM10.3472 18.3574L9.18701 16.1426L8.81787 15.4043L8.07959 15.0352L5.86475 13.875L8.07959 12.7676L8.81787 12.3984L9.18701 11.6602L10.3472 9.44531L11.4546 11.6602L11.8237 12.3984L12.562 12.7676L14.7769 13.875L12.562 15.0352L11.8237 15.4043L11.4546 16.1426L10.3472 18.3574ZM22.1597 17.25L20.4722 20.625L17.0972 22.3125L20.4722 24L22.1597 27.375L23.8472 24L27.2222 22.3125L23.8472 20.625L22.1597 17.25Z" fill="white"/>
</svg>
